<?xml version="1.0" encoding="UTF-8" standalone="no" ?>
<!DOCTYPE svg PUBLIC "-//W3C//DTD SVG 1.1//EN" "http://www.w3.org/Graphics/SVG/1.1/DTD/svg11.dtd">
<svg xmlns="http://www.w3.org/2000/svg" xmlns:xlink="http://www.w3.org/1999/xlink" version="1.1" width="1280" height="1024" viewBox="0 0 1280 1024" xml:space="preserve">
<desc>Created with Fabric.js 5.3.0</desc>
<defs>
</defs>
<g transform="matrix(1 0 0 1 640 512)" id="background-logo"  >
<rect style="stroke: none; stroke-width: 0; stroke-dasharray: none; stroke-linecap: butt; stroke-dashoffset: 0; stroke-linejoin: miter; stroke-miterlimit: 4; fill: rgb(255,255,255); fill-rule: nonzero; opacity: 1;"  paint-order="stroke"  x="-640" y="-512" rx="0" ry="0" width="1280" height="1024" />
</g>
<g transform="matrix(2.372849028702463 0 0 2.372849028702463 640 429.202868991483)" id="logo-logo"  >
<g style=""  paint-order="stroke"   >
		<g transform="matrix(0.14895104255849556 0 0 -0.14895104255849564 0.00030156481562926274 -58.20238180224612)"  >
<linearGradient id="SVGID_184696_191897" gradientUnits="userSpaceOnUse" gradientTransform="matrix(1 0 0 1 1381.3099999999997 9419.72)"  x1="0" y1="0" x2="0" y2="601">
<stop offset="0%" style="stop-color:rgb(91,36,122);stop-opacity: 1"/>
<stop offset="100%" style="stop-color:rgb(27,206,223);stop-opacity: 1"/>
</linearGradient>
<path style="stroke: none; stroke-width: 1; stroke-dasharray: none; stroke-linecap: butt; stroke-dashoffset: 0; stroke-linejoin: miter; stroke-miterlimit: 4; fill: url(#SVGID_184696_191897); fill-rule: nonzero; opacity: 1;"  paint-order="stroke"  transform=" translate(-1624.9999999999998, -9720.16)" d="M 1534.66 9776.93 C 1534.66 9826.75 1575.19 9867.27 1625 9867.27 C 1674.81 9867.27 1715.34 9826.75 1715.34 9776.93 L 1715.34 9588.89 L 1715.34 9573.07 L 1715.34 9573.07 C 1715.34 9488.38 1784 9419.72 1868.6899999999998 9419.72 L 1868.6899999999998 9419.72 L 1868.6899999999998 9573.07 L 1868.6899999999998 9776.93 C 1868.6899999999998 9911.300000000001 1759.37 10020.6 1624.9999999999998 10020.6 C 1490.6299999999997 10020.6 1381.3099999999997 9911.300000000001 1381.3099999999997 9776.93 L 1381.3099999999997 9609.380000000001 L 1534.6599999999996 9609.380000000001 L 1534.6599999999996 9776.93" stroke-linecap="round" />
</g>
		<g transform="matrix(0.14895104255849556 0 0 -0.14895104255849564 58.20269252388823 -0.0015169809047108629)"  >
<path style="stroke: none; stroke-width: 1; stroke-dasharray: none; stroke-linecap: butt; stroke-dashoffset: 0; stroke-linejoin: miter; stroke-miterlimit: 4; fill: rgb(68,97,158); fill-rule: nonzero; opacity: 1;"  paint-order="stroke"  transform=" translate(-2015.7850000000003, -9329.384999999998)" d="M 2072.55 9419.72 C 2122.36 9419.72 2162.8900000000003 9379.199999999999 2162.8900000000003 9329.38 C 2162.8900000000003 9279.57 2122.36 9239.039999999999 2072.55 9239.039999999999 L 1884.5100000000002 9239.039999999999 L 1868.6900000000003 9239.039999999999 L 1868.6900000000003 9239.039999999999 C 1784.0000000000002 9239.039999999999 1715.3400000000004 9170.39 1715.3400000000004 9085.699999999999 L 1715.3400000000004 9085.699999999999 L 1868.6900000000003 9085.699999999999 L 2072.55 9085.699999999999 C 2206.92 9085.699999999999 2316.23 9195.019999999999 2316.23 9329.38 C 2316.23 9463.75 2206.92 9573.07 2072.55 9573.07 L 1905 9573.07 L 1905 9419.72 L 2072.55 9419.72" stroke-linecap="round" />
</g>
		<g transform="matrix(0.14895104255849556 0 0 -0.14895104255849564 0.00030156481562926274 58.2016370470333)"  >
<linearGradient id="SVGID_184696_191898" gradientUnits="userSpaceOnUse" gradientTransform="matrix(1 0 0 1 1381.3100000000002 8638.150000000001)"  x1="0" y1="0" x2="0" y2="601">
<stop offset="0%" style="stop-color:rgb(91,36,122);stop-opacity: 1"/>
<stop offset="100%" style="stop-color:rgb(27,206,223);stop-opacity: 1"/>
</linearGradient>
<path style="stroke: none; stroke-width: 1; stroke-dasharray: none; stroke-linecap: butt; stroke-dashoffset: 0; stroke-linejoin: miter; stroke-miterlimit: 4; fill: url(#SVGID_184696_191898); fill-rule: nonzero; opacity: 1;"  paint-order="stroke"  transform=" translate(-1625.0000000000002, -8938.595000000001)" d="M 1715.34 8881.84 C 1715.34 8832.02 1674.81 8791.49 1625 8791.49 C 1575.19 8791.49 1534.66 8832.02 1534.66 8881.84 L 1534.66 9069.880000000001 L 1534.66 9085.7 L 1534.66 9085.7 C 1534.66 9170.390000000001 1466 9239.04 1381.3100000000002 9239.04 L 1381.3100000000002 9239.04 L 1381.3100000000002 9085.7 L 1381.3100000000002 8881.84 C 1381.3100000000002 8747.460000000001 1490.63 8638.15 1625.0000000000002 8638.15 C 1759.3700000000003 8638.15 1868.6900000000003 8747.46 1868.6900000000003 8881.84 L 1868.6900000000003 9049.380000000001 L 1715.3400000000004 9049.380000000001 L 1715.3400000000004 8881.84" stroke-linecap="round" />
</g>
		<g transform="matrix(0.14895104255849556 0 0 -0.14895104255849564 -58.20239462180308 -0.0015169809047108629)"  >
<path style="stroke: none; stroke-width: 1; stroke-dasharray: none; stroke-linecap: butt; stroke-dashoffset: 0; stroke-linejoin: miter; stroke-miterlimit: 4; fill: rgb(68,97,158); fill-rule: nonzero; opacity: 1;"  paint-order="stroke"  transform=" translate(-1234.2129999999997, -9329.385000000002)" d="M 1177.45 9239.04 C 1127.64 9239.04 1087.1100000000001 9279.570000000002 1087.1100000000001 9329.380000000001 C 1087.1100000000001 9379.2 1127.64 9419.720000000001 1177.45 9419.720000000001 L 1365.49 9419.720000000001 L 1381.31 9419.720000000001 L 1381.31 9419.720000000001 C 1466 9419.720000000001 1534.6599999999999 9488.380000000001 1534.6599999999999 9573.070000000002 L 1534.6599999999999 9573.070000000002 L 1381.31 9573.070000000002 L 1177.4499999999998 9573.070000000002 C 1043.0899999999997 9573.070000000002 933.7659999999998 9463.750000000002 933.7659999999998 9329.380000000001 C 933.7659999999998 9195.02 1043.09 9085.7 1177.4499999999998 9085.7 L 1345 9085.7 L 1345 9239.04 L 1177.45 9239.04" stroke-linecap="round" />
</g>
</g>
</g>
<g transform="matrix(1.9211538461538462 0 0 1.9211538461538462 641.0494786148286 774.0482378428708)" id="text-logo"  >
<g style=""  paint-order="stroke"   >
		<g transform="matrix(1 0 0 1 5.684342e-14 0)" id="text-logo-path-0"  >
<path style="stroke: none; stroke-width: 0.6191684402685238; stroke-dasharray: none; stroke-linecap: butt; stroke-dashoffset: 0; stroke-linejoin: miter; stroke-miterlimit: 4; fill: rgb(76,74,144); fill-rule: nonzero; opacity: 1;"  paint-order="stroke"  transform=" translate(-233.755, 19.09)" d="M 14.61 0.79 L 14.61 0.79 Q 7.76 0.79 2.38 -1.08 L 2.38 -1.08 Q 2.38 -7.93 6.51 -7.93 L 6.51 -7.93 Q 7.25 -7.93 9.52 -7.17 Q 11.78 -6.4 14.05 -6.4 L 14.05 -6.4 Q 20.79 -6.4 20.79 -10.99 L 20.79 -10.99 Q 20.79 -15.01 11.98 -17.05 Q 3.17 -19.09 3.17 -27.13 L 3.17 -27.13 Q 3.17 -38.97 17.56 -38.97 L 17.56 -38.97 Q 23.22 -38.97 28.49 -37.38 L 28.49 -37.38 Q 28.49 -30.47 24.53 -30.47 L 24.53 -30.47 Q 23.96 -30.47 21.72 -31.12 Q 19.48 -31.78 17.73 -31.78 L 17.73 -31.78 Q 11.55 -31.78 11.55 -27.53 L 11.55 -27.53 Q 11.55 -24.13 20.5 -21.78 Q 29.45 -19.43 29.45 -11.21 L 29.45 -11.21 Q 29.45 0.79 14.61 0.79 Z M 50.91 0 L 47.17 0 L 47.17 -30.36 Q 47.17 -38.18 54.87 -38.18 L 54.87 -38.18 L 61.39 -38.18 Q 75.49 -38.18 75.49 -25.38 L 75.49 -25.38 Q 75.49 -12.57 61.39 -12.57 L 61.39 -12.57 L 55.78 -12.57 L 55.78 -5.66 Q 55.78 0 50.91 0 L 50.91 0 Z M 60.54 -31.44 L 60.54 -31.44 L 58.16 -31.44 Q 55.78 -31.44 55.78 -28.77 L 55.78 -28.77 L 55.78 -19.31 L 60.54 -19.31 Q 66.71 -19.31 66.71 -25.38 L 66.71 -25.38 Q 66.71 -31.44 60.54 -31.44 Z M 97 0 L 93.15 0 L 93.15 -32.4 Q 93.15 -38.18 98.14 -38.18 L 98.14 -38.18 L 101.99 -38.18 L 101.99 -5.66 Q 101.99 0 97 0 L 97 0 Z M 125.82 0 L 122.48 0 L 122.48 -32.46 Q 122.48 -38.74 128.31 -38.74 L 128.31 -38.74 L 131.88 -38.74 L 145.93 -11.44 L 145.93 -32.51 Q 145.93 -38.18 150.4 -38.18 L 150.4 -38.18 L 153.75 -38.18 L 153.75 0.57 L 148.48 0.57 Q 144.29 0.57 142.47 -2.95 L 142.47 -2.95 L 130.3 -26.9 L 130.3 -5.66 Q 130.3 0 125.82 0 L 125.82 0 Z M 175.14 0 L 170.84 0 L 180.98 -33.42 Q 182.39 -38.18 188.23 -38.18 L 188.23 -38.18 L 194.01 -38.18 L 205.5 0 L 201.09 0 Q 196.61 0 195.53 -3.96 L 195.53 -3.96 L 194.46 -7.87 L 181.6 -7.87 L 180.52 -3.96 Q 179.45 0 175.14 0 L 175.14 0 Z M 188.11 -31.49 L 183.41 -14.39 L 192.7 -14.39 L 188.11 -31.49 Z M 244.46 0 L 229.34 0 Q 221.18 0 221.18 -8.33 L 221.18 -8.33 L 221.18 -32.51 Q 221.18 -38.18 226.17 -38.18 L 226.17 -38.18 L 230.02 -38.18 L 230.02 -10.88 Q 230.02 -7.7 233.3 -7.7 L 233.3 -7.7 L 238.4 -7.7 Q 244.46 -7.7 244.46 0 L 244.46 0 Z M 270.67 0.79 L 270.67 0.79 Q 263.82 0.79 258.44 -1.08 L 258.44 -1.08 Q 258.44 -7.93 262.57 -7.93 L 262.57 -7.93 Q 263.31 -7.93 265.58 -7.17 Q 267.84 -6.4 270.11 -6.4 L 270.11 -6.4 Q 276.85 -6.4 276.85 -10.99 L 276.85 -10.99 Q 276.85 -15.01 268.04 -17.05 Q 259.23 -19.09 259.23 -27.13 L 259.23 -27.13 Q 259.23 -38.97 273.62 -38.97 L 273.62 -38.97 Q 279.28 -38.97 284.55 -37.38 L 284.55 -37.38 Q 284.55 -30.47 280.59 -30.47 L 280.59 -30.47 Q 280.02 -30.47 277.78 -31.12 Q 275.55 -31.78 273.79 -31.78 L 273.79 -31.78 Q 267.62 -31.78 267.62 -27.53 L 267.62 -27.53 Q 267.62 -24.13 276.56 -21.78 Q 285.51 -19.43 285.51 -11.21 L 285.51 -11.21 Q 285.51 0.79 270.67 0.79 Z M 328.04 0 L 311.33 0 Q 303.23 0 303.23 -8.33 L 303.23 -8.33 L 303.23 -30.93 Q 303.23 -38.18 310.31 -38.18 L 310.31 -38.18 L 327.81 -38.18 Q 327.81 -31.21 320.96 -31.21 L 320.96 -31.21 L 314.11 -31.21 Q 311.78 -31.21 311.78 -28.89 L 311.78 -28.89 L 311.78 -22.83 L 321.81 -22.83 Q 325.21 -22.83 325.21 -19.37 L 325.21 -19.37 Q 325.21 -15.86 321.81 -15.86 L 321.81 -15.86 L 311.78 -15.86 L 311.78 -10.2 Q 311.78 -6.97 315.07 -6.97 L 315.07 -6.97 L 321.07 -6.97 Q 328.04 -6.97 328.04 0 L 328.04 0 Z M 348.48 0 L 345.13 0 L 345.13 -32.46 Q 345.13 -38.74 350.97 -38.74 L 350.97 -38.74 L 354.54 -38.74 L 368.58 -11.44 L 368.58 -32.51 Q 368.58 -38.18 373.06 -38.18 L 373.06 -38.18 L 376.4 -38.18 L 376.4 0.57 L 371.13 0.57 Q 366.94 0.57 365.13 -2.95 L 365.13 -2.95 L 352.95 -26.9 L 352.95 -5.66 Q 352.95 0 348.48 0 L 348.48 0 Z M 407.77 0.79 L 407.77 0.79 Q 400.91 0.79 395.53 -1.08 L 395.53 -1.08 Q 395.53 -7.93 399.67 -7.93 L 399.67 -7.93 Q 400.4 -7.93 402.67 -7.17 Q 404.94 -6.4 407.2 -6.4 L 407.2 -6.4 Q 413.94 -6.4 413.94 -10.99 L 413.94 -10.99 Q 413.94 -15.01 405.13 -17.05 Q 396.33 -19.09 396.33 -27.13 L 396.33 -27.13 Q 396.33 -38.97 410.71 -38.97 L 410.71 -38.97 Q 416.38 -38.97 421.64 -37.38 L 421.64 -37.38 Q 421.64 -30.47 417.68 -30.47 L 417.68 -30.47 Q 417.11 -30.47 414.88 -31.12 Q 412.64 -31.78 410.88 -31.78 L 410.88 -31.78 Q 404.71 -31.78 404.71 -27.53 L 404.71 -27.53 Q 404.71 -24.13 413.66 -21.78 Q 422.61 -19.43 422.61 -11.21 L 422.61 -11.21 Q 422.61 0.79 407.77 0.79 Z M 465.13 0 L 448.42 0 Q 440.32 0 440.32 -8.33 L 440.32 -8.33 L 440.32 -30.93 Q 440.32 -38.18 447.4 -38.18 L 447.4 -38.18 L 464.91 -38.18 Q 464.91 -31.21 458.05 -31.21 L 458.05 -31.21 L 451.2 -31.21 Q 448.88 -31.21 448.88 -28.89 L 448.88 -28.89 L 448.88 -22.83 L 458.9 -22.83 Q 462.3 -22.83 462.3 -19.37 L 462.3 -19.37 Q 462.3 -15.86 458.9 -15.86 L 458.9 -15.86 L 448.88 -15.86 L 448.88 -10.2 Q 448.88 -6.97 452.16 -6.97 L 452.16 -6.97 L 458.17 -6.97 Q 465.13 -6.97 465.13 0 L 465.13 0 Z" stroke-linecap="round" />
</g>
</g>
</g>
</svg>